<svg xmlns="http://www.w3.org/2000/svg" viewBox="0 0 200 200" width="200" height="200">
  <!-- Abstract Void Beast - Dark Purple/Black with White Neon Outlines -->
  <defs>
    <radialGradient id="e5glow" cx="50%" cy="50%" r="50%">
      <stop offset="0%" stop-color="#220033" stop-opacity="0.9"/>
      <stop offset="70%" stop-color="#0a0010" stop-opacity="0.7"/>
      <stop offset="100%" stop-color="#000000" stop-opacity="0"/>
    </radialGradient>
    <radialGradient id="e5core" cx="50%" cy="50%" r="50%">
      <stop offset="0%" stop-color="#440066"/>
      <stop offset="100%" stop-color="#110022"/>
    </radialGradient>
    <linearGradient id="e5limb" x1="0%" y1="0%" x2="100%" y2="100%">
      <stop offset="0%" stop-color="#1a0033"/>
      <stop offset="100%" stop-color="#000000"/>
    </linearGradient>
  </defs>
  <!-- Void aura -->
  <circle cx="100" cy="100" r="95" fill="url(#e5glow)"/>
  <!-- Distortion rings -->
  <circle cx="100" cy="100" r="80" fill="none" stroke="#ffffff" stroke-width="0.5" opacity="0.15"/>
  <circle cx="100" cy="100" r="65" fill="none" stroke="#bb88ff" stroke-width="0.5" opacity="0.2"/>
  <circle cx="100" cy="100" r="50" fill="none" stroke="#ffffff" stroke-width="0.5" opacity="0.1"/>
  <!-- Main amorphous body -->
  <path d="M60,70 Q50,50 65,40 Q80,30 100,35 Q120,30 135,40 Q150,50 140,70 Q155,85 150,105 Q155,125 140,140 Q125,155 100,150 Q75,155 60,140 Q45,125 50,105 Q45,85 60,70Z" fill="url(#e5core)" stroke="#ffffff" stroke-width="1.8" opacity="0.9"/>
  <!-- Inner void pattern -->
  <path d="M75,65 Q85,55 100,58 Q115,55 125,65 Q132,80 128,95 Q132,110 125,125 Q115,135 100,132 Q85,135 75,125 Q68,110 72,95 Q68,80 75,65Z" fill="#0a0015" stroke="#bb88ff" stroke-width="1" opacity="0.7"/>
  <!-- Multiple eyes - scattered -->
  <!-- Main eye -->
  <ellipse cx="100" cy="80" rx="10" ry="8" fill="#0a0010" stroke="#ffffff" stroke-width="1.5"/>
  <ellipse cx="100" cy="80" rx="5" ry="6" fill="#6600aa"/>
  <circle cx="100" cy="79" r="2.5" fill="#ffffff"/>
  <!-- Secondary eyes -->
  <ellipse cx="80" cy="95" rx="6" ry="5" fill="#0a0010" stroke="#ffffff" stroke-width="1"/>
  <ellipse cx="80" cy="95" rx="3" ry="4" fill="#6600aa"/>
  <circle cx="80" cy="94" r="1.5" fill="#ffffff"/>
  <ellipse cx="120" cy="95" rx="6" ry="5" fill="#0a0010" stroke="#ffffff" stroke-width="1"/>
  <ellipse cx="120" cy="95" rx="3" ry="4" fill="#6600aa"/>
  <circle cx="120" cy="94" r="1.5" fill="#ffffff"/>
  <!-- Small eyes -->
  <circle cx="90" cy="110" r="3" fill="#0a0010" stroke="#ffffff" stroke-width="0.8"/>
  <circle cx="90" cy="110" r="1.5" fill="#8833cc"/>
  <circle cx="110" cy="110" r="3" fill="#0a0010" stroke="#ffffff" stroke-width="0.8"/>
  <circle cx="110" cy="110" r="1.5" fill="#8833cc"/>
  <!-- Tentacle limbs -->
  <path d="M55,75 Q30,60 15,50 Q20,55 18,65 Q25,58 22,72" fill="none" stroke="#ffffff" stroke-width="1.5" stroke-linecap="round" opacity="0.8"/>
  <path d="M145,75 Q170,60 185,50 Q180,55 182,65 Q175,58 178,72" fill="none" stroke="#ffffff" stroke-width="1.5" stroke-linecap="round" opacity="0.8"/>
  <path d="M55,130 Q30,145 15,160 Q22,152 18,142 Q28,150 25,138" fill="none" stroke="#ffffff" stroke-width="1.5" stroke-linecap="round" opacity="0.8"/>
  <path d="M145,130 Q170,145 185,160 Q178,152 182,142 Q172,150 175,138" fill="none" stroke="#ffffff" stroke-width="1.5" stroke-linecap="round" opacity="0.8"/>
  <!-- Bottom tendrils -->
  <path d="M85,148 Q80,170 72,185" fill="none" stroke="#ffffff" stroke-width="1.2" stroke-linecap="round" opacity="0.6"/>
  <path d="M100,150 Q100,172 100,190" fill="none" stroke="#ffffff" stroke-width="1.2" stroke-linecap="round" opacity="0.6"/>
  <path d="M115,148 Q120,170 128,185" fill="none" stroke="#ffffff" stroke-width="1.2" stroke-linecap="round" opacity="0.6"/>
  <!-- Top horns / spikes -->
  <path d="M78,38 Q70,18 65,8" fill="none" stroke="#ffffff" stroke-width="1.5" stroke-linecap="round" opacity="0.8"/>
  <path d="M100,35 Q100,15 100,5" fill="none" stroke="#ffffff" stroke-width="1.5" stroke-linecap="round" opacity="0.8"/>
  <path d="M122,38 Q130,18 135,8" fill="none" stroke="#ffffff" stroke-width="1.5" stroke-linecap="round" opacity="0.8"/>
  <!-- Void particles / glitch effects -->
  <rect x="30" y="40" width="4" height="1.5" fill="#ffffff" opacity="0.4"/>
  <rect x="165" y="45" width="5" height="1.5" fill="#ffffff" opacity="0.3"/>
  <rect x="25" y="120" width="3" height="1.5" fill="#bb88ff" opacity="0.4"/>
  <rect x="170" y="125" width="4" height="1.5" fill="#bb88ff" opacity="0.3"/>
  <rect x="45" y="170" width="3" height="1" fill="#ffffff" opacity="0.3"/>
  <rect x="150" y="170" width="3" height="1" fill="#ffffff" opacity="0.3"/>
  <!-- Floating void dots -->
  <circle cx="35" cy="80" r="1.5" fill="#bb88ff" opacity="0.5"/>
  <circle cx="165" cy="80" r="1.5" fill="#bb88ff" opacity="0.5"/>
  <circle cx="100" cy="170" r="2" fill="#ffffff" opacity="0.3"/>
  <circle cx="42" cy="150" r="1" fill="#ffffff" opacity="0.4"/>
  <circle cx="158" cy="150" r="1" fill="#ffffff" opacity="0.4"/>
  <!-- Mouth - jagged -->
  <path d="M88,120 L92,117 L96,122 L100,116 L104,122 L108,117 L112,120" fill="none" stroke="#ffffff" stroke-width="1.2" opacity="0.8"/>
</svg>