<svg xmlns="http://www.w3.org/2000/svg" viewBox="0 0 260 220" width="260" height="220">
  <!-- Hero - Minataro (湊太郎): Cool cyberpunk boy, no hat, spiky hair, with 2 plushie companions -->
  <defs>
    <linearGradient id="hjacket" x1="0%" y1="0%" x2="0%" y2="100%">
      <stop offset="0%" stop-color="#22ddff"/>
      <stop offset="100%" stop-color="#0088cc"/>
    </linearGradient>
    <linearGradient id="hjacket2" x1="0%" y1="0%" x2="0%" y2="100%">
      <stop offset="0%" stop-color="#1a1a3e"/>
      <stop offset="100%" stop-color="#0a0a2a"/>
    </linearGradient>
    <linearGradient id="hpants" x1="0%" y1="0%" x2="0%" y2="100%">
      <stop offset="0%" stop-color="#1a1a2e"/>
      <stop offset="100%" stop-color="#111122"/>
    </linearGradient>
    <linearGradient id="hskin" x1="0%" y1="0%" x2="0%" y2="100%">
      <stop offset="0%" stop-color="#ffddbb"/>
      <stop offset="100%" stop-color="#ffcc99"/>
    </linearGradient>
    <linearGradient id="hhair" x1="0%" y1="0%" x2="100%" y2="100%">
      <stop offset="0%" stop-color="#1a1a3e"/>
      <stop offset="100%" stop-color="#0a0a2a"/>
    </linearGradient>
    <linearGradient id="hglow" x1="0%" y1="0%" x2="0%" y2="100%">
      <stop offset="0%" stop-color="#00d4ff" stop-opacity="0.6"/>
      <stop offset="100%" stop-color="#00d4ff" stop-opacity="0"/>
    </linearGradient>
    <linearGradient id="plush1" x1="0%" y1="0%" x2="0%" y2="100%">
      <stop offset="0%" stop-color="#ffaa44"/>
      <stop offset="100%" stop-color="#dd7722"/>
    </linearGradient>
    <linearGradient id="plush2" x1="0%" y1="0%" x2="0%" y2="100%">
      <stop offset="0%" stop-color="#88bbff"/>
      <stop offset="100%" stop-color="#5588dd"/>
    </linearGradient>
  </defs>

  <!-- === ENERGY AURA (behind character) === -->
  <ellipse cx="130" cy="195" rx="60" ry="8" fill="#000000" opacity="0.2"/>
  <circle cx="130" cy="110" r="70" fill="url(#hglow)" opacity="0.15"/>

  <!-- === LEGS === -->
  <rect x="112" y="160" width="14" height="32" rx="4" fill="url(#hpants)" stroke="#0a0a1a" stroke-width="1.5"/>
  <rect x="132" y="160" width="14" height="32" rx="4" fill="url(#hpants)" stroke="#0a0a1a" stroke-width="1.5"/>
  <!-- Boots (cyber style) -->
  <path d="M108,188 Q110,196 119,198 Q126,200 128,196 L126,188 Z" fill="#1a1a3e" stroke="#00d4ff" stroke-width="1"/>
  <path d="M130,188 Q132,196 139,198 Q146,200 148,196 L146,188 Z" fill="#1a1a3e" stroke="#00d4ff" stroke-width="1"/>
  <line x1="112" y1="193" x2="124" y2="193" stroke="#00d4ff" stroke-width="1" opacity="0.7"/>
  <line x1="134" y1="193" x2="144" y2="193" stroke="#00d4ff" stroke-width="1" opacity="0.7"/>

  <!-- === BODY (Cyber jacket) === -->
  <path d="M102,108 Q98,100 102,92 L106,86 Q118,78 138,78 Q152,78 156,86 L160,92 Q163,100 160,108 L162,158 Q145,166 130,166 Q115,166 98,158 Z" fill="url(#hjacket2)" stroke="#00d4ff" stroke-width="1.5"/>
  <line x1="130" y1="86" x2="130" y2="162" stroke="#00d4ff" stroke-width="1" opacity="0.5"/>
  <path d="M108,100 L152,100" stroke="#00d4ff" stroke-width="0.8" opacity="0.3"/>
  <path d="M106,120 L154,120" stroke="#00d4ff" stroke-width="0.8" opacity="0.3"/>
  <!-- Collar -->
  <path d="M112,88 Q120,82 130,84 Q140,82 148,88" fill="none" stroke="#00d4ff" stroke-width="2"/>
  <!-- Chest emblem -->
  <polygon points="130,95 134,100 130,105 126,100" fill="#00d4ff" opacity="0.6"/>
  <polygon points="130,97 132,100 130,103 128,100" fill="#ffffff" opacity="0.4"/>
  <!-- Shoulder pads -->
  <path d="M100,95 Q96,90 100,85 L108,88 L106,98 Z" fill="url(#hjacket2)" stroke="#00d4ff" stroke-width="1"/>
  <path d="M160,95 Q164,90 160,85 L152,88 L154,98 Z" fill="url(#hjacket2)" stroke="#00d4ff" stroke-width="1"/>

  <!-- === LEFT ARM === -->
  <path d="M102,95 Q88,100 82,112 Q78,122 80,130" fill="none" stroke="url(#hjacket2)" stroke-width="14" stroke-linecap="round"/>
  <path d="M102,95 Q88,100 82,112 Q78,122 80,130" fill="none" stroke="#00d4ff" stroke-width="1"/>
  <circle cx="80" cy="133" r="7" fill="url(#hskin)" stroke="#cc9966" stroke-width="1.5"/>
  <rect x="74" y="125" width="12" height="4" rx="2" fill="#1a1a3e" stroke="#00d4ff" stroke-width="0.8"/>

  <!-- === RIGHT ARM === -->
  <path d="M160,95 Q172,105 174,120 Q175,132 172,140" fill="none" stroke="url(#hjacket2)" stroke-width="14" stroke-linecap="round"/>
  <path d="M160,95 Q172,105 174,120 Q175,132 172,140" fill="none" stroke="#00d4ff" stroke-width="1"/>
  <circle cx="172" cy="143" r="7" fill="url(#hskin)" stroke="#cc9966" stroke-width="1.5"/>
  <rect x="166" y="135" width="12" height="4" rx="2" fill="#1a1a3e" stroke="#00d4ff" stroke-width="0.8"/>

  <!-- === HEAD === -->
  <circle cx="130" cy="58" r="30" fill="url(#hskin)" stroke="#cc9966" stroke-width="1.5"/>

  <!-- === HAIR (Spiky, dark with cyan highlights) === -->
  <path d="M100,55 Q98,35 108,22 Q115,15 125,12 Q135,10 145,14 Q155,20 158,30 Q162,40 160,55 Q155,45 148,42 Q140,38 130,36 Q120,38 112,42 Q105,45 100,55 Z" fill="url(#hhair)" stroke="#0a0a2a" stroke-width="1"/>
  <path d="M108,22 Q100,10 96,5" fill="none" stroke="url(#hhair)" stroke-width="6" stroke-linecap="round"/>
  <path d="M120,15 Q115,2 118,-2" fill="none" stroke="url(#hhair)" stroke-width="5" stroke-linecap="round"/>
  <path d="M135,13 Q138,-2 142,-4" fill="none" stroke="url(#hhair)" stroke-width="5" stroke-linecap="round"/>
  <path d="M150,18 Q158,8 164,6" fill="none" stroke="url(#hhair)" stroke-width="5" stroke-linecap="round"/>
  <path d="M155,28 Q165,18 170,16" fill="none" stroke="url(#hhair)" stroke-width="4" stroke-linecap="round"/>
  <!-- Cyan highlights -->
  <path d="M106,25 Q100,12 96,6" fill="none" stroke="#00d4ff" stroke-width="1.5" opacity="0.6" stroke-linecap="round"/>
  <path d="M118,16 Q115,4 118,-1" fill="none" stroke="#00d4ff" stroke-width="1.5" opacity="0.5" stroke-linecap="round"/>
  <path d="M148,20 Q156,10 162,8" fill="none" stroke="#00d4ff" stroke-width="1.5" opacity="0.5" stroke-linecap="round"/>
  <!-- Fringe -->
  <path d="M108,46 Q112,38 118,42 Q122,36 128,40 Q132,34 138,40 Q142,36 148,42 Q152,38 155,46" fill="url(#hhair)" stroke="none"/>
  <path d="M115,42 Q118,38 122,40" fill="none" stroke="#00d4ff" stroke-width="1" opacity="0.5"/>
  <path d="M100,55 Q97,62 98,72" fill="#1a1a3e" stroke="none"/>
  <path d="M160,55 Q163,62 162,72" fill="#1a1a3e" stroke="none"/>

  <!-- === FACE === -->
  <!-- Eyes (sharp, determined) -->
  <path d="M116,52 L125,51 L125,64 L115,63 Z" fill="#ffffff" stroke="#222244" stroke-width="1.5"/>
  <path d="M135,51 L144,52 L145,63 L135,64 Z" fill="#ffffff" stroke="#222244" stroke-width="1.5"/>
  <ellipse cx="121" cy="58" rx="4" ry="5" fill="#00bbff"/>
  <ellipse cx="139" cy="58" rx="4" ry="5" fill="#00bbff"/>
  <circle cx="122" cy="57" r="2.2" fill="#0a0a3e"/>
  <circle cx="140" cy="57" r="2.2" fill="#0a0a3e"/>
  <circle cx="123" cy="55" r="2" fill="#ffffff"/>
  <circle cx="141" cy="55" r="2" fill="#ffffff"/>
  <circle cx="119" cy="60" r="1" fill="#ffffff" opacity="0.6"/>
  <circle cx="137" cy="60" r="1" fill="#ffffff" opacity="0.6"/>
  <!-- Eyebrows -->
  <path d="M114,48 Q119,44 126,47" fill="none" stroke="#1a1a3e" stroke-width="2.5" stroke-linecap="round"/>
  <path d="M134,47 Q141,44 146,48" fill="none" stroke="#1a1a3e" stroke-width="2.5" stroke-linecap="round"/>
  <!-- Smirk -->
  <path d="M120,70 Q126,76 130,76 Q134,76 140,70" fill="none" stroke="#333333" stroke-width="1.5" stroke-linecap="round"/>
  <path d="M136,71 L138,74 L140,71" fill="#ffffff" stroke="none"/>
  <!-- Nose -->
  <path d="M129,64 L130,67 L131,64" fill="none" stroke="#dd9977" stroke-width="1.2"/>
  <!-- Ears -->
  <ellipse cx="100" cy="58" rx="4" ry="6" fill="url(#hskin)" stroke="#cc9966" stroke-width="1.5"/>
  <ellipse cx="160" cy="58" rx="4" ry="6" fill="url(#hskin)" stroke="#cc9966" stroke-width="1.5"/>
  <circle cx="99" cy="62" r="1.5" fill="#00d4ff"/>

  <!-- === PLUSHIE 1 (Orange cat, left shoulder) === -->
  <g transform="translate(62, 82)">
    <ellipse cx="0" cy="8" rx="12" ry="14" fill="url(#plush1)" stroke="#aa5500" stroke-width="1.2"/>
    <circle cx="0" cy="-8" r="11" fill="#ffbb55" stroke="#aa5500" stroke-width="1.2"/>
    <polygon points="-9,-16 -6,-26 -2,-15" fill="#ffbb55" stroke="#aa5500" stroke-width="1"/>
    <polygon points="9,-16 6,-26 2,-15" fill="#ffbb55" stroke="#aa5500" stroke-width="1"/>
    <polygon points="-7,-17 -6,-23 -3,-16" fill="#ff8866" opacity="0.6"/>
    <polygon points="7,-17 6,-23 3,-16" fill="#ff8866" opacity="0.6"/>
    <circle cx="-4" cy="-9" r="3" fill="#111111"/>
    <circle cx="4" cy="-9" r="3" fill="#111111"/>
    <circle cx="-3" cy="-10" r="1.2" fill="#ffffff"/>
    <circle cx="5" cy="-10" r="1.2" fill="#ffffff"/>
    <ellipse cx="0" cy="-5" rx="1.5" ry="1" fill="#ff6644"/>
    <path d="M-2,-4 Q0,-2 2,-4" fill="none" stroke="#aa5500" stroke-width="0.8"/>
    <line x1="-5" y1="-6" x2="-14" y2="-8" stroke="#aa5500" stroke-width="0.6" opacity="0.5"/>
    <line x1="-5" y1="-4" x2="-14" y2="-4" stroke="#aa5500" stroke-width="0.6" opacity="0.5"/>
    <line x1="5" y1="-6" x2="14" y2="-8" stroke="#aa5500" stroke-width="0.6" opacity="0.5"/>
    <line x1="5" y1="-4" x2="14" y2="-4" stroke="#aa5500" stroke-width="0.6" opacity="0.5"/>
    <path d="M10,14 Q18,10 20,4 Q22,-2 18,-6" fill="none" stroke="#ffaa44" stroke-width="4" stroke-linecap="round"/>
    <path d="M-10,2 L-16,6" stroke="#ffaa44" stroke-width="3" stroke-linecap="round"/>
    <path d="M10,2 L16,6" stroke="#ffaa44" stroke-width="3" stroke-linecap="round"/>
    <ellipse cx="-7" cy="-4" rx="3" ry="1.5" fill="#ff8888" opacity="0.4"/>
    <ellipse cx="7" cy="-4" rx="3" ry="1.5" fill="#ff8888" opacity="0.4"/>
  </g>

  <!-- === PLUSHIE 2 (Blue bear, right side) === -->
  <g transform="translate(196, 130)">
    <ellipse cx="0" cy="8" rx="12" ry="14" fill="url(#plush2)" stroke="#3366aa" stroke-width="1.2"/>
    <circle cx="0" cy="-8" r="11" fill="#99ccff" stroke="#3366aa" stroke-width="1.2"/>
    <circle cx="-8" cy="-17" r="5" fill="#99ccff" stroke="#3366aa" stroke-width="1"/>
    <circle cx="8" cy="-17" r="5" fill="#99ccff" stroke="#3366aa" stroke-width="1"/>
    <circle cx="-8" cy="-17" r="3" fill="#bbddff" opacity="0.7"/>
    <circle cx="8" cy="-17" r="3" fill="#bbddff" opacity="0.7"/>
    <circle cx="-4" cy="-9" r="3" fill="#111111"/>
    <circle cx="4" cy="-9" r="3" fill="#111111"/>
    <circle cx="-3" cy="-10" r="1.2" fill="#ffffff"/>
    <circle cx="5" cy="-10" r="1.2" fill="#ffffff"/>
    <ellipse cx="0" cy="-5" rx="2" ry="1.5" fill="#4477bb"/>
    <path d="M-2,-3 Q0,-1 2,-3" fill="none" stroke="#3366aa" stroke-width="0.8"/>
    <polygon points="0,-15 1,-13 3,-13 1.5,-11.5 2,-9.5 0,-10.5 -2,-9.5 -1.5,-11.5 -3,-13 -1,-13" fill="#ffdd00" opacity="0.7"/>
    <circle cx="10" cy="16" r="4" fill="#99ccff" stroke="#3366aa" stroke-width="0.8"/>
    <path d="M-10,2 L-16,6" stroke="#88bbff" stroke-width="3" stroke-linecap="round"/>
    <path d="M10,2 L16,6" stroke="#88bbff" stroke-width="3" stroke-linecap="round"/>
    <ellipse cx="-7" cy="-4" rx="3" ry="1.5" fill="#ff8888" opacity="0.4"/>
    <ellipse cx="7" cy="-4" rx="3" ry="1.5" fill="#ff8888" opacity="0.4"/>
  </g>

  <!-- === ENERGY SPARKLES === -->
  <circle cx="70" cy="30" r="2" fill="#00d4ff" opacity="0.7">
    <animate attributeName="opacity" values="0.7;0.2;0.7" dur="2s" repeatCount="indefinite"/>
  </circle>
  <circle cx="190" cy="25" r="2" fill="#00d4ff" opacity="0.5">
    <animate attributeName="opacity" values="0.5;0.1;0.5" dur="1.5s" repeatCount="indefinite"/>
  </circle>
  <circle cx="55" cy="110" r="1.5" fill="#00ffaa" opacity="0.5">
    <animate attributeName="opacity" values="0.5;0.1;0.5" dur="2.5s" repeatCount="indefinite"/>
  </circle>
  <circle cx="210" cy="100" r="1.5" fill="#00ffaa" opacity="0.4">
    <animate attributeName="opacity" values="0.4;0.1;0.4" dur="1.8s" repeatCount="indefinite"/>
  </circle>
  <circle cx="80" cy="170" r="1" fill="#00d4ff" opacity="0.5">
    <animate attributeName="opacity" values="0.5;0.1;0.5" dur="3s" repeatCount="indefinite"/>
  </circle>
  <circle cx="180" cy="175" r="1" fill="#00d4ff" opacity="0.4">
    <animate attributeName="opacity" values="0.4;0.1;0.4" dur="2.2s" repeatCount="indefinite"/>
  </circle>
</svg>