<svg xmlns="http://www.w3.org/2000/svg" viewBox="0 0 400 400">
  <defs>
    <radialGradient id="s2bg" cx="50%" cy="50%" r="50%">
      <stop offset="0%" stop-color="#00d4ff" stop-opacity="1"/>
      <stop offset="40%" stop-color="#0088ff" stop-opacity="0.8"/>
      <stop offset="70%" stop-color="#ff00ff" stop-opacity="0.4"/>
      <stop offset="100%" stop-color="#8800ff" stop-opacity="0"/>
    </radialGradient>
    <filter id="s2glow">
      <feGaussianBlur stdDeviation="4" result="blur"/>
      <feMerge><feMergeNode in="blur"/><feMergeNode in="SourceGraphic"/></feMerge>
    </filter>
  </defs>
  <circle cx="200" cy="200" r="180" fill="url(#s2bg)"/>
  <!-- Swirl pattern -->
  <g filter="url(#s2glow)">
    <path d="M200,200 Q300,100 350,200 Q300,300 200,350 Q100,300 50,200 Q100,100 200,50 Q250,100 200,200" fill="none" stroke="#00d4ff" stroke-width="4" opacity="0.8"/>
    <path d="M200,200 Q280,120 330,200 Q280,280 200,330 Q120,280 70,200 Q120,120 200,70 Q240,120 200,200" fill="none" stroke="#ff00ff" stroke-width="3" opacity="0.6"/>
    <path d="M200,200 Q260,140 310,200 Q260,260 200,310 Q140,260 90,200 Q140,140 200,90 Q230,140 200,200" fill="none" stroke="#00ffff" stroke-width="2" opacity="0.5"/>
  </g>
  <!-- Energy rings -->
  <circle cx="200" cy="200" r="60" fill="none" stroke="#00d4ff" stroke-width="3" opacity="0.7"/>
  <circle cx="200" cy="200" r="90" fill="none" stroke="#ff00ff" stroke-width="2" opacity="0.5"/>
  <circle cx="200" cy="200" r="120" fill="none" stroke="#00d4ff" stroke-width="2" opacity="0.3"/>
  <circle cx="200" cy="200" r="150" fill="none" stroke="#ff00ff" stroke-width="1" opacity="0.2"/>
  <!-- Central core -->
  <circle cx="200" cy="200" r="25" fill="#fff" opacity="0.9"/>
  <circle cx="200" cy="200" r="15" fill="#00d4ff" opacity="0.8"/>
  <!-- Star burst -->
  <g stroke="#fff" stroke-width="2" opacity="0.4">
    <line x1="200" y1="20" x2="200" y2="60"/>
    <line x1="327" y1="73" x2="297" y2="97"/>
    <line x1="380" y1="200" x2="340" y2="200"/>
    <line x1="327" y1="327" x2="297" y2="303"/>
    <line x1="200" y1="380" x2="200" y2="340"/>
    <line x1="73" y1="327" x2="103" y2="303"/>
    <line x1="20" y1="200" x2="60" y2="200"/>
    <line x1="73" y1="73" x2="103" y2="97"/>
  </g>
</svg>