<svg xmlns="http://www.w3.org/2000/svg" viewBox="0 0 600 480" width="600" height="480">
  <defs>
    <linearGradient id="titleGrad" x1="0%" y1="0%" x2="100%" y2="100%">
      <stop offset="0%" stop-color="#00ccff"/>
      <stop offset="50%" stop-color="#0088ff"/>
      <stop offset="100%" stop-color="#aa44ff"/>
    </linearGradient>
    <linearGradient id="titleGlow" x1="0%" y1="0%" x2="0%" y2="100%">
      <stop offset="0%" stop-color="#00ccff" stop-opacity="0.6"/>
      <stop offset="100%" stop-color="#00ccff" stop-opacity="0"/>
    </linearGradient>
    <linearGradient id="bHoodie" x1="0%" y1="0%" x2="0%" y2="100%">
      <stop offset="0%" stop-color="#5cd65c"/>
      <stop offset="100%" stop-color="#3aaa3a"/>
    </linearGradient>
    <linearGradient id="bSkin" x1="0%" y1="0%" x2="0%" y2="100%">
      <stop offset="0%" stop-color="#ffe0c2"/>
      <stop offset="100%" stop-color="#ffd1a8"/>
    </linearGradient>
    <linearGradient id="bHair" x1="0%" y1="0%" x2="100%" y2="100%">
      <stop offset="0%" stop-color="#2a2a3a"/>
      <stop offset="100%" stop-color="#1a1a28"/>
    </linearGradient>
    <linearGradient id="bSeal" x1="0%" y1="0%" x2="0%" y2="100%">
      <stop offset="0%" stop-color="#f5f5ff"/>
      <stop offset="100%" stop-color="#dde0f0"/>
    </linearGradient>
    <linearGradient id="bRaccoon" x1="0%" y1="0%" x2="0%" y2="100%">
      <stop offset="0%" stop-color="#9a8a72"/>
      <stop offset="100%" stop-color="#7a6a52"/>
    </linearGradient>
    <linearGradient id="kbGrad" x1="0%" y1="0%" x2="0%" y2="100%">
      <stop offset="0%" stop-color="#2a2a4a"/>
      <stop offset="100%" stop-color="#1a1a2e"/>
    </linearGradient>
    <linearGradient id="keyGrad" x1="0%" y1="0%" x2="0%" y2="100%">
      <stop offset="0%" stop-color="#3a3a5a"/>
      <stop offset="100%" stop-color="#2a2a44"/>
    </linearGradient>
    <filter id="glow">
      <feGaussianBlur stdDeviation="3" result="blur"/>
      <feMerge>
        <feMergeNode in="blur"/>
        <feMergeNode in="SourceGraphic"/>
      </feMerge>
    </filter>
    <filter id="glowStrong">
      <feGaussianBlur stdDeviation="6" result="blur"/>
      <feMerge>
        <feMergeNode in="blur"/>
        <feMergeNode in="SourceGraphic"/>
      </feMerge>
    </filter>
    <filter id="textGlow">
      <feGaussianBlur stdDeviation="4" result="blur"/>
      <feMerge>
        <feMergeNode in="blur"/>
        <feMergeNode in="blur"/>
        <feMergeNode in="SourceGraphic"/>
      </feMerge>
    </filter>
  </defs>

  <!-- ========== LIGHTNING EFFECTS (behind everything) ========== -->
  <!-- Left lightning bolt -->
  <g filter="url(#glowStrong)" opacity="0.8">
    <path d="M120,80 L140,120 L125,122 L155,180 L130,140 L145,138 L120,80" fill="#00ccff" opacity="0.7"/>
    <path d="M122,82 L140,118 L127,120 L153,176 L132,140 L143,138 L122,82" fill="#ffffff" opacity="0.5"/>
  </g>
  <!-- Right lightning bolt -->
  <g filter="url(#glowStrong)" opacity="0.8">
    <path d="M480,80 L460,120 L475,122 L445,180 L470,140 L455,138 L480,80" fill="#00ccff" opacity="0.7"/>
    <path d="M478,82 L460,118 L473,120 L447,176 L468,140 L457,138 L478,82" fill="#ffffff" opacity="0.5"/>
  </g>
  <!-- Small sparks -->
  <circle cx="100" cy="100" r="2" fill="#00ddff" opacity="0.8" filter="url(#glow)">
    <animate attributeName="opacity" values="0.8;0.2;0.8" dur="1.5s" repeatCount="indefinite"/>
  </circle>
  <circle cx="500" cy="110" r="2" fill="#00ddff" opacity="0.6" filter="url(#glow)">
    <animate attributeName="opacity" values="0.6;0.1;0.6" dur="2s" repeatCount="indefinite"/>
  </circle>
  <circle cx="160" cy="60" r="1.5" fill="#ffdd00" opacity="0.7" filter="url(#glow)">
    <animate attributeName="opacity" values="0.7;0.2;0.7" dur="1.8s" repeatCount="indefinite"/>
  </circle>
  <circle cx="440" cy="55" r="1.5" fill="#ffdd00" opacity="0.5" filter="url(#glow)">
    <animate attributeName="opacity" values="0.5;0.1;0.5" dur="2.2s" repeatCount="indefinite"/>
  </circle>
  <circle cx="80" cy="200" r="1.5" fill="#00ffaa" opacity="0.5" filter="url(#glow)">
    <animate attributeName="opacity" values="0.5;0.1;0.5" dur="2.5s" repeatCount="indefinite"/>
  </circle>
  <circle cx="520" cy="190" r="1.5" fill="#00ffaa" opacity="0.4" filter="url(#glow)">
    <animate attributeName="opacity" values="0.4;0.1;0.4" dur="1.8s" repeatCount="indefinite"/>
  </circle>

  <!-- ========== TITLE TEXT ========== -->
  <!-- "BATTLE OF BAYTARO" - main title -->
  <text x="300" y="42" text-anchor="middle" font-family="'Orbitron', 'Arial Black', sans-serif" font-size="42" font-weight="900" fill="url(#titleGrad)" filter="url(#textGlow)" letter-spacing="4">BATTLE OF</text>
  <text x="300" y="88" text-anchor="middle" font-family="'Orbitron', 'Arial Black', sans-serif" font-size="52" font-weight="900" fill="url(#titleGrad)" filter="url(#textGlow)" letter-spacing="6">BAYTARO</text>

  <!-- "湊太郎の戦い!" subtitle -->
  <text x="300" y="118" text-anchor="middle" font-family="'Noto Sans JP', sans-serif" font-size="22" font-weight="700" fill="#ffdd00" filter="url(#glow)">湊太郎の戦い!</text>

  <!-- "タイピングバトル!" -->
  <text x="300" y="145" text-anchor="middle" font-family="'Noto Sans JP', sans-serif" font-size="16" fill="#aaaacc" letter-spacing="3">タイピングバトル!</text>

  <!-- ========== SEAL (left) ========== -->
  <g transform="translate(160, 260)">
    <ellipse cx="0" cy="14" rx="18" ry="15" fill="url(#bSeal)" stroke="#c8cce0" stroke-width="1"/>
    <circle cx="0" cy="-2" r="15" fill="url(#bSeal)" stroke="#c8cce0" stroke-width="1"/>
    <circle cx="-5" cy="-4" r="3" fill="#1a1a2a"/>
    <circle cx="5" cy="-4" r="3" fill="#1a1a2a"/>
    <circle cx="-4" cy="-5" r="1.2" fill="#ffffff"/>
    <circle cx="6" cy="-5" r="1.2" fill="#ffffff"/>
    <ellipse cx="0" cy="1" rx="2" ry="1.5" fill="#333"/>
    <path d="M-2.5,3 Q0,5.5 2.5,3" fill="none" stroke="#555" stroke-width="0.7"/>
    <line x1="-5" y1="0" x2="-13" y2="-1" stroke="#bbb" stroke-width="0.5"/>
    <line x1="-5" y1="2" x2="-13" y2="3" stroke="#bbb" stroke-width="0.5"/>
    <line x1="5" y1="0" x2="13" y2="-1" stroke="#bbb" stroke-width="0.5"/>
    <line x1="5" y1="2" x2="13" y2="3" stroke="#bbb" stroke-width="0.5"/>
    <path d="M-14,8 Q-22,14 -16,22 Q-12,18 -12,10" fill="url(#bSeal)" stroke="#c8cce0" stroke-width="0.8"/>
    <path d="M14,8 Q22,14 16,22 Q12,18 12,10" fill="url(#bSeal)" stroke="#c8cce0" stroke-width="0.8"/>
    <ellipse cx="-8" cy="1" rx="3" ry="2" fill="#ffb8b8" opacity="0.3"/>
    <ellipse cx="8" cy="1" rx="3" ry="2" fill="#ffb8b8" opacity="0.3"/>
  </g>

  <!-- ========== BOY CHARACTER (center) ========== -->
  <g transform="translate(300, 170)">
    <!-- Shadow -->
    <ellipse cx="0" cy="155" rx="35" ry="5" fill="#000" opacity="0.15"/>

    <!-- Legs -->
    <rect x="-12" y="110" width="12" height="30" rx="3" fill="#2a2a3a" stroke="#1a1a28" stroke-width="1"/>
    <rect x="2" y="110" width="12" height="30" rx="3" fill="#2a2a3a" stroke="#1a1a28" stroke-width="1"/>
    <!-- Shoes -->
    <path d="M-16,136 Q-14,146 -6,148 Q2,150 5,144 L3,136 Z" fill="#2288aa" stroke="#1a6688" stroke-width="0.8"/>
    <path d="M-1,136 Q1,146 9,148 Q16,150 19,144 L17,136 Z" fill="#2288aa" stroke="#1a6688" stroke-width="0.8"/>
    <line x1="-12" y1="142" x2="0" y2="142" stroke="#fff" stroke-width="1" opacity="0.35"/>
    <line x1="2" y1="142" x2="14" y2="142" stroke="#fff" stroke-width="1" opacity="0.35"/>

    <!-- Body (hoodie) -->
    <path d="M-24,40 Q-28,32 -22,26 L-18,20 Q-8,12 6,12 Q20,12 26,20 L30,26 Q34,34 30,40 L32,108 Q18,116 2,116 Q-14,116 -26,108 Z" fill="url(#bHoodie)" stroke="#2d8a2d" stroke-width="1.2"/>
    <line x1="3" y1="26" x2="3" y2="112" stroke="#2d8a2d" stroke-width="1.2" opacity="0.5"/>
    <!-- Pocket -->
    <rect x="-14" y="78" width="32" height="14" rx="3" fill="#3aaa3a" stroke="#2d8a2d" stroke-width="0.8" opacity="0.5"/>
    <!-- Hood -->
    <path d="M-18,20 Q-6,10 3,8 Q12,10 24,20" fill="none" stroke="#2d8a2d" stroke-width="1.8"/>
    <!-- Hood strings -->
    <circle cx="-2" cy="30" r="1.5" fill="#2d8a2d"/>
    <circle cx="8" cy="30" r="1.5" fill="#2d8a2d"/>
    <line x1="-2" y1="31.5" x2="-4" y2="42" stroke="#2d8a2d" stroke-width="1"/>
    <line x1="8" y1="31.5" x2="10" y2="42" stroke="#2d8a2d" stroke-width="1"/>

    <!-- Left arm -->
    <path d="M-24,40 Q-36,48 -38,60 Q-40,72 -36,80" fill="none" stroke="url(#bHoodie)" stroke-width="13" stroke-linecap="round"/>
    <path d="M-24,40 Q-36,48 -38,60 Q-40,72 -36,80" fill="none" stroke="#2d8a2d" stroke-width="0.8"/>
    <circle cx="-36" cy="83" r="6" fill="url(#bSkin)" stroke="#ddb88a" stroke-width="0.8"/>

    <!-- Right arm -->
    <path d="M30,40 Q42,52 43,64 Q44,78 40,86" fill="none" stroke="url(#bHoodie)" stroke-width="13" stroke-linecap="round"/>
    <path d="M30,40 Q42,52 43,64 Q44,78 40,86" fill="none" stroke="#2d8a2d" stroke-width="0.8"/>
    <circle cx="40" cy="89" r="6" fill="url(#bSkin)" stroke="#ddb88a" stroke-width="0.8"/>

    <!-- Head -->
    <circle cx="3" cy="-10" r="26" fill="url(#bSkin)" stroke="#ddb88a" stroke-width="1.2"/>

    <!-- Hair -->
    <path d="M-22,-12 Q-24,-30 -14,-40 Q-6,-47 4,-50 Q14,-52 22,-46 Q30,-40 32,-28 Q34,-18 32,-10 Q26,-22 18,-26 Q10,-30 2,-30 Q-8,-28 -14,-24 Q-20,-18 -22,-12 Z" fill="url(#bHair)" stroke="#1a1a28" stroke-width="0.8"/>
    <path d="M-14,-40 Q-20,-50 -24,-54" fill="none" stroke="url(#bHair)" stroke-width="5" stroke-linecap="round"/>
    <path d="M-4,-48 Q-6,-60 -2,-64" fill="none" stroke="url(#bHair)" stroke-width="4.5" stroke-linecap="round"/>
    <path d="M10,-50 Q14,-62 18,-64" fill="none" stroke="url(#bHair)" stroke-width="4.5" stroke-linecap="round"/>
    <path d="M22,-46 Q30,-54 36,-54" fill="none" stroke="url(#bHair)" stroke-width="4.5" stroke-linecap="round"/>
    <path d="M30,-36 Q38,-42 42,-40" fill="none" stroke="url(#bHair)" stroke-width="3.5" stroke-linecap="round"/>
    <!-- Fringe -->
    <path d="M-16,-18 Q-12,-26 -8,-22 Q-2,-28 4,-24 Q10,-30 16,-24 Q20,-28 26,-20" fill="url(#bHair)" stroke="none"/>

    <!-- Eyes -->
    <ellipse cx="-8" cy="-12" rx="6" ry="7" fill="#ffffff" stroke="#2a2a3a" stroke-width="1.2"/>
    <ellipse cx="14" cy="-12" rx="6" ry="7" fill="#ffffff" stroke="#2a2a3a" stroke-width="1.2"/>
    <ellipse cx="-7" cy="-11" rx="4.5" ry="5.5" fill="#4488cc"/>
    <ellipse cx="15" cy="-11" rx="4.5" ry="5.5" fill="#4488cc"/>
    <circle cx="-6" cy="-11" r="2.5" fill="#1a1a3a"/>
    <circle cx="16" cy="-11" r="2.5" fill="#1a1a3a"/>
    <circle cx="-4.5" cy="-13.5" r="2" fill="#ffffff"/>
    <circle cx="17.5" cy="-13.5" r="2" fill="#ffffff"/>
    <circle cx="-9" cy="-8" r="0.8" fill="#ffffff" opacity="0.6"/>
    <circle cx="13" cy="-8" r="0.8" fill="#ffffff" opacity="0.6"/>
    <!-- Eyebrows -->
    <path d="M-14,-22 Q-9,-26 -2,-23" fill="none" stroke="#2a2a3a" stroke-width="2" stroke-linecap="round"/>
    <path d="M8,-23 Q15,-26 20,-22" fill="none" stroke="#2a2a3a" stroke-width="2" stroke-linecap="round"/>
    <!-- Nose -->
    <path d="M2,-2 L3,1 L4,-2" fill="none" stroke="#ddb88a" stroke-width="1"/>
    <!-- Mouth -->
    <path d="M-4,5 Q2,10 3,10 Q4,10 10,5" fill="none" stroke="#444" stroke-width="1.2" stroke-linecap="round"/>
    <!-- Cheeks -->
    <ellipse cx="-13" cy="0" rx="3.5" ry="2" fill="#ffb8b8" opacity="0.3"/>
    <ellipse cx="19" cy="0" rx="3.5" ry="2" fill="#ffb8b8" opacity="0.3"/>
    <!-- Ears -->
    <ellipse cx="-23" cy="-10" rx="3.5" ry="5" fill="url(#bSkin)" stroke="#ddb88a" stroke-width="0.8"/>
    <ellipse cx="29" cy="-10" rx="3.5" ry="5" fill="url(#bSkin)" stroke="#ddb88a" stroke-width="0.8"/>
  </g>

  <!-- ========== RACCOON (right) ========== -->
  <g transform="translate(430, 252)">
    <ellipse cx="0" cy="20" rx="16" ry="18" fill="url(#bRaccoon)" stroke="#5a4a32" stroke-width="1"/>
    <ellipse cx="0" cy="22" rx="10" ry="12" fill="#d4c8b0" stroke="none"/>
    <circle cx="0" cy="-2" r="15" fill="url(#bRaccoon)" stroke="#5a4a32" stroke-width="1"/>
    <!-- Face mask -->
    <path d="M-12,-5 Q-8,-10 0,-10 Q8,-10 12,-5 L10,1 Q5,5 0,5 Q-5,5 -10,1 Z" fill="#3a3028"/>
    <ellipse cx="-6" cy="-3" rx="4" ry="3.5" fill="#e8e0d0"/>
    <ellipse cx="6" cy="-3" rx="4" ry="3.5" fill="#e8e0d0"/>
    <circle cx="-5" cy="-2.5" r="2" fill="#1a1a2a"/>
    <circle cx="7" cy="-2.5" r="2" fill="#1a1a2a"/>
    <circle cx="-4" cy="-3.5" r="0.8" fill="#ffffff"/>
    <circle cx="8" cy="-3.5" r="0.8" fill="#ffffff"/>
    <ellipse cx="0" cy="1.5" rx="2" ry="1.5" fill="#222"/>
    <path d="M-2,3 Q0,5 2,3" fill="none" stroke="#444" stroke-width="0.7"/>
    <!-- Ears -->
    <path d="M-10,-14 Q-12,-22 -7,-19 Q-3,-16 -7,-12" fill="#9a8a72" stroke="#5a4a32" stroke-width="0.7"/>
    <path d="M10,-14 Q12,-22 7,-19 Q3,-16 7,-12" fill="#9a8a72" stroke="#5a4a32" stroke-width="0.7"/>
    <!-- Arms -->
    <path d="M-14,12 L-18,18" stroke="#9a8a72" stroke-width="4" stroke-linecap="round"/>
    <path d="M14,12 L18,18" stroke="#9a8a72" stroke-width="4" stroke-linecap="round"/>
    <circle cx="-19" cy="19" r="3" fill="#6a5a42"/>
    <circle cx="19" cy="19" r="3" fill="#6a5a42"/>
    <!-- Legs -->
    <path d="M-8,36 L-8,42" stroke="#9a8a72" stroke-width="4" stroke-linecap="round"/>
    <path d="M8,36 L8,42" stroke="#9a8a72" stroke-width="4" stroke-linecap="round"/>
    <ellipse cx="-8" cy="44" rx="3.5" ry="2" fill="#6a5a42"/>
    <ellipse cx="8" cy="44" rx="3.5" ry="2" fill="#6a5a42"/>
    <!-- Tail -->
    <path d="M12,30 Q24,24 26,14 Q28,6 22,0" fill="none" stroke="url(#bRaccoon)" stroke-width="7" stroke-linecap="round"/>
    <path d="M24,6 Q28,6 28,6" stroke="#3a3028" stroke-width="6" opacity="0.5"/>
    <path d="M25,14 Q29,14 29,14" stroke="#3a3028" stroke-width="6" opacity="0.5"/>
    <path d="M23,22 Q27,22 27,22" stroke="#3a3028" stroke-width="6" opacity="0.5"/>
    <ellipse cx="-8" cy="1" rx="3" ry="1.5" fill="#ffb8b8" opacity="0.3"/>
    <ellipse cx="8" cy="1" rx="3" ry="1.5" fill="#ffb8b8" opacity="0.3"/>
  </g>

  <!-- ========== KEYBOARD (bottom) ========== -->
  <g transform="translate(300, 410)">
    <!-- Keyboard base -->
    <rect x="-140" y="0" width="280" height="60" rx="8" fill="url(#kbGrad)" stroke="#444466" stroke-width="1.5"/>
    <!-- Row 1 -->
    <rect x="-128" y="6" width="22" height="14" rx="2" fill="url(#keyGrad)" stroke="#555577" stroke-width="0.8"/>
    <text x="-117" y="16" text-anchor="middle" font-family="monospace" font-size="8" fill="#88aacc">Q</text>
    <rect x="-102" y="6" width="22" height="14" rx="2" fill="url(#keyGrad)" stroke="#555577" stroke-width="0.8"/>
    <text x="-91" y="16" text-anchor="middle" font-family="monospace" font-size="8" fill="#88aacc">W</text>
    <rect x="-76" y="6" width="22" height="14" rx="2" fill="url(#keyGrad)" stroke="#555577" stroke-width="0.8"/>
    <text x="-65" y="16" text-anchor="middle" font-family="monospace" font-size="8" fill="#88aacc">E</text>
    <rect x="-50" y="6" width="22" height="14" rx="2" fill="url(#keyGrad)" stroke="#555577" stroke-width="0.8"/>
    <text x="-39" y="16" text-anchor="middle" font-family="monospace" font-size="8" fill="#88aacc">R</text>
    <rect x="-24" y="6" width="22" height="14" rx="2" fill="url(#keyGrad)" stroke="#555577" stroke-width="0.8"/>
    <text x="-13" y="16" text-anchor="middle" font-family="monospace" font-size="8" fill="#88aacc">T</text>
    <rect x="2" y="6" width="22" height="14" rx="2" fill="url(#keyGrad)" stroke="#555577" stroke-width="0.8"/>
    <text x="13" y="16" text-anchor="middle" font-family="monospace" font-size="8" fill="#88aacc">Y</text>
    <rect x="28" y="6" width="22" height="14" rx="2" fill="url(#keyGrad)" stroke="#555577" stroke-width="0.8"/>
    <text x="39" y="16" text-anchor="middle" font-family="monospace" font-size="8" fill="#88aacc">U</text>
    <rect x="54" y="6" width="22" height="14" rx="2" fill="url(#keyGrad)" stroke="#555577" stroke-width="0.8"/>
    <text x="65" y="16" text-anchor="middle" font-family="monospace" font-size="8" fill="#88aacc">I</text>
    <rect x="80" y="6" width="22" height="14" rx="2" fill="url(#keyGrad)" stroke="#555577" stroke-width="0.8"/>
    <text x="91" y="16" text-anchor="middle" font-family="monospace" font-size="8" fill="#88aacc">O</text>
    <rect x="106" y="6" width="22" height="14" rx="2" fill="url(#keyGrad)" stroke="#555577" stroke-width="0.8"/>
    <text x="117" y="16" text-anchor="middle" font-family="monospace" font-size="8" fill="#88aacc">P</text>
    <!-- Row 2 -->
    <rect x="-120" y="24" width="22" height="14" rx="2" fill="url(#keyGrad)" stroke="#555577" stroke-width="0.8"/>
    <text x="-109" y="34" text-anchor="middle" font-family="monospace" font-size="8" fill="#88aacc">A</text>
    <rect x="-94" y="24" width="22" height="14" rx="2" fill="url(#keyGrad)" stroke="#555577" stroke-width="0.8"/>
    <text x="-83" y="34" text-anchor="middle" font-family="monospace" font-size="8" fill="#88aacc">S</text>
    <rect x="-68" y="24" width="22" height="14" rx="2" fill="url(#keyGrad)" stroke="#555577" stroke-width="0.8"/>
    <text x="-57" y="34" text-anchor="middle" font-family="monospace" font-size="8" fill="#88aacc">D</text>
    <rect x="-42" y="24" width="22" height="14" rx="2" fill="url(#keyGrad)" stroke="#555577" stroke-width="0.8"/>
    <text x="-31" y="34" text-anchor="middle" font-family="monospace" font-size="8" fill="#88aacc">F</text>
    <rect x="-16" y="24" width="22" height="14" rx="2" fill="url(#keyGrad)" stroke="#555577" stroke-width="0.8"/>
    <text x="-5" y="34" text-anchor="middle" font-family="monospace" font-size="8" fill="#88aacc">G</text>
    <rect x="10" y="24" width="22" height="14" rx="2" fill="url(#keyGrad)" stroke="#555577" stroke-width="0.8"/>
    <text x="21" y="34" text-anchor="middle" font-family="monospace" font-size="8" fill="#88aacc">H</text>
    <rect x="36" y="24" width="22" height="14" rx="2" fill="url(#keyGrad)" stroke="#555577" stroke-width="0.8"/>
    <text x="47" y="34" text-anchor="middle" font-family="monospace" font-size="8" fill="#88aacc">J</text>
    <rect x="62" y="24" width="22" height="14" rx="2" fill="url(#keyGrad)" stroke="#555577" stroke-width="0.8"/>
    <text x="73" y="34" text-anchor="middle" font-family="monospace" font-size="8" fill="#88aacc">K</text>
    <rect x="88" y="24" width="22" height="14" rx="2" fill="url(#keyGrad)" stroke="#555577" stroke-width="0.8"/>
    <text x="99" y="34" text-anchor="middle" font-family="monospace" font-size="8" fill="#88aacc">L</text>
    <!-- Row 3 (space bar) -->
    <rect x="-60" y="42" width="120" height="12" rx="2" fill="url(#keyGrad)" stroke="#555577" stroke-width="0.8"/>

    <!-- Key glow effects -->
    <rect x="-76" y="6" width="22" height="14" rx="2" fill="#00ccff" opacity="0.15"/>
    <rect x="2" y="6" width="22" height="14" rx="2" fill="#00ccff" opacity="0.15"/>
    <rect x="80" y="6" width="22" height="14" rx="2" fill="#00ccff" opacity="0.15"/>
    <rect x="-68" y="24" width="22" height="14" rx="2" fill="#ffdd00" opacity="0.1"/>
    <rect x="36" y="24" width="22" height="14" rx="2" fill="#ffdd00" opacity="0.1"/>
  </g>

  <!-- ========== Extra energy sparkles ========== -->
  <circle cx="200" cy="200" r="2" fill="#ffdd00" opacity="0.6" filter="url(#glow)">
    <animate attributeName="opacity" values="0.6;0.15;0.6" dur="2s" repeatCount="indefinite"/>
  </circle>
  <circle cx="400" cy="210" r="2" fill="#ffdd00" opacity="0.5" filter="url(#glow)">
    <animate attributeName="opacity" values="0.5;0.1;0.5" dur="1.6s" repeatCount="indefinite"/>
  </circle>
  <circle cx="140" cy="350" r="1.5" fill="#00ccff" opacity="0.5" filter="url(#glow)">
    <animate attributeName="opacity" values="0.5;0.1;0.5" dur="2.2s" repeatCount="indefinite"/>
  </circle>
  <circle cx="460" cy="340" r="1.5" fill="#00ccff" opacity="0.4" filter="url(#glow)">
    <animate attributeName="opacity" values="0.4;0.1;0.4" dur="1.9s" repeatCount="indefinite"/>
  </circle>
</svg>